<?xml version="1.0" encoding="UTF-8" standalone="no"?>
<!-- Creator: CorelDRAW X7 -->

<svg
   xmlns:dc="http://purl.org/dc/elements/1.1/"
   xmlns:cc="http://creativecommons.org/ns#"
   xmlns:rdf="http://www.w3.org/1999/02/22-rdf-syntax-ns#"
   xmlns:svg="http://www.w3.org/2000/svg"
   xmlns="http://www.w3.org/2000/svg"
   xmlns:sodipodi="http://sodipodi.sourceforge.net/DTD/sodipodi-0.dtd"
   xmlns:inkscape="http://www.inkscape.org/namespaces/inkscape"
   xml:space="preserve"
   width="488"
   height="70"
   version="1.1"
   style="clip-rule:evenodd;fill-rule:evenodd;image-rendering:optimizeQuality;shape-rendering:geometricPrecision;text-rendering:geometricPrecision"
   viewBox="0 0 488.00139 70"
   id="svg10"
   sodipodi:docname="logo-niki.svg"
   inkscape:version="0.92.0 r15299"><metadata
     id="metadata14"><rdf:RDF><cc:Work
         rdf:about=""><dc:format>image/svg+xml</dc:format><dc:type
           rdf:resource="http://purl.org/dc/dcmitype/StillImage" /><dc:title></dc:title></cc:Work></rdf:RDF></metadata><sodipodi:namedview
     pagecolor="#ffffff"
     bordercolor="#666666"
     borderopacity="1"
     objecttolerance="10"
     gridtolerance="10"
     guidetolerance="10"
     inkscape:pageopacity="0"
     inkscape:pageshadow="2"
     inkscape:window-width="1920"
     inkscape:window-height="1017"
     id="namedview12"
     showgrid="false"
     inkscape:zoom="1.8101934"
     inkscape:cx="421156.97"
     inkscape:cy="264892.96"
     inkscape:window-x="-8"
     inkscape:window-y="-8"
     inkscape:window-maximized="1"
     inkscape:current-layer="Vrstva_x0020_1" /><defs
     id="defs4"><style
       type="text/css"
       id="style2"><![CDATA[
    .fil0 {fill:#26292E;fill-rule:nonzero}
   ]]></style></defs><g
     id="Vrstva_x0020_1"
     transform="matrix(0.09242239,0,0,0.09242239,402406.51,-295016.94)"><metadata
       id="CorelCorpID_0Corel-Layer" /><path
       class="fil0"
       d="m 201041.67,326728.32 c -17.96,28.73 -26.93,58.12 -26.93,88.19 0,32.76 11.9,62.62 35.69,89.54 13.01,15.26 29.5,27.16 49.47,35.68 19.98,8.53 41.86,12.79 65.65,12.79 23.78,0 45.1,-4.49 63.95,-13.46 37.7,-18.39 56.55,-48.47 56.55,-90.21 0,-15.71 -5.27,-32.32 -15.82,-49.83 -10.55,-17.49 -26.37,-33.2 -47.46,-47.11 l -114.46,-76.75 c -44.43,-27.83 -66.64,-63.73 -66.64,-107.72 0,-4.48 0.22,-8.98 0.68,-13.46 2.69,-34.56 16.49,-62.72 41.4,-84.5 24.9,-21.75 58.23,-32.64 99.98,-32.64 25.58,0 56.55,2.24 92.91,6.74 h 41.73 l -8.75,98.96 h -6.06 c -0.45,-23.34 -9.43,-42.08 -26.92,-56.21 -17.52,-14.14 -40.64,-21.22 -69.36,-21.22 -35,0 -60.37,10.54 -76.07,31.65 -7.63,10.76 -11.45,22.44 -11.45,35 0,12.56 3.82,23.24 11.45,31.98 7.63,8.75 19.74,18.29 36.37,28.61 l 125.88,82.14 c 25.57,16.6 45.55,36.13 59.91,58.57 17.06,26.48 25.59,53.62 25.59,81.45 0,17.96 -3.71,36.92 -11.1,56.89 -7.41,19.97 -19.53,38.49 -36.36,55.55 -16.84,17.04 -38.48,30.96 -64.96,41.73 -26.5,10.78 -55.77,16.15 -87.86,16.15 -32.1,0 -61.15,-5.6 -87.19,-16.82 -48.03,-20.2 -78.54,-55.42 -91.55,-105.69 -2.7,-10.79 -4.04,-21.99 -4.04,-33.67 0,-37.71 13.23,-73.37 39.71,-107.04 z m 1099.35,284.77 c 46.68,0 84.39,-9.19 113.11,-27.59 l 4.72,5.37 c -38.6,53.42 -86.62,83.03 -144.08,88.87 -12.12,1.35 -22.55,2.02 -31.3,2.02 -8.75,0 -18.84,-0.34 -30.29,-1 -11.45,-0.68 -27.5,-3.71 -48.14,-9.1 -20.65,-5.38 -38.82,-10.88 -54.53,-16.49 -15.71,-5.62 -33.89,-13.01 -54.54,-22.22 -20.64,-9.19 -37.69,-17.27 -51.15,-24.23 -13.48,-6.95 -29.52,-15.25 -48.14,-24.91 -18.62,-9.65 -34.9,-17.84 -48.81,-24.57 -13.92,-6.74 -27.38,-12.58 -40.39,-17.51 -36.8,-14.8 -74.51,-22.21 -113.1,-22.21 v -6.73 h 8.74 c 11.68,0 21.66,-4.04 29.97,-12.12 8.3,-8.08 12.67,-18.17 13.13,-30.29 v -372.98 c -0.46,-12.11 -4.83,-22.21 -13.13,-30.29 -8.31,-8.08 -18.29,-12.12 -29.97,-12.12 h -8.74 v -6.73 h 204.65 l -0.67,6.73 h -6.72 c -17.07,0 -29.86,6.97 -38.38,20.88 -4.04,6.29 -6.05,13.46 -6.05,21.53 v 390.47 c 0,14.82 2.9,25.03 8.74,30.64 5.83,5.6 12.34,9.53 19.53,11.77 168.74,55.22 290.59,82.81 365.54,82.81 z m -62.61,-617.34 -4.71,-4.7 c 19.3,-33.22 51.61,-70.02 96.96,-110.42 21.99,11.23 37.24,29.41 45.76,54.53 -46.21,29.17 -92.22,49.37 -138.01,60.59 z m 425.49,646.97 c -48.93,24.68 -98.52,28.72 -148.79,12.11 -53.4,-17.06 -99.41,-53.4 -138.01,-109.06 -20.64,-29.62 -38.37,-63.96 -53.17,-103 l -21.56,-57.22 h -158.88 l -35.67,84.83 c -2.24,5.83 -3.37,11.32 -3.37,16.49 0,5.15 2.46,10.77 7.41,16.82 4.93,6.06 12.34,9.1 22.22,9.1 h 5.37 v 6.73 h -144.07 v -6.73 h 6.07 c 10.31,0 20.52,-3.04 30.62,-9.1 10.1,-6.05 18.52,-15.14 25.26,-27.26 l 150.12,-342.67 c -17.51,-39.48 -36.13,-66.65 -55.88,-81.46 -16.6,-12.56 -32.43,-18.84 -47.45,-18.84 -15.05,0 -29.08,2.24 -42.08,6.73 l -1.36,-6.73 c 32.32,-16.62 63.29,-24.92 92.91,-24.92 36.79,0 69.8,14.36 98.96,43.1 28.72,28.27 54.09,69.11 76.08,122.51 l 97.61,241.01 c 36.8,91.11 74.51,153.72 113.11,187.83 15.71,13.92 31.87,23.57 48.47,28.96 16.6,5.38 30.63,8.08 42.08,8.08 11.45,0 22.55,-1.35 33.32,-4.04 z m -508.96,-286.13 h 137.34 l -47.13,-124.53 c -2.25,-5.84 -5.5,-14.59 -9.76,-26.26 -4.26,-11.67 -6.85,-19.31 -7.74,-22.9 z m 396.52,-28.27 c -17.95,28.73 -26.92,58.12 -26.92,88.19 0,32.76 11.9,62.62 35.69,89.54 13.01,15.26 29.5,27.16 49.47,35.68 19.98,8.53 41.86,12.79 65.65,12.79 23.78,0 45.1,-4.49 63.95,-13.46 37.7,-18.39 56.55,-48.47 56.55,-90.21 0,-15.71 -5.27,-32.32 -15.83,-49.83 -10.54,-17.49 -26.37,-33.2 -47.45,-47.11 l -114.45,-76.75 c -44.44,-27.83 -66.66,-63.73 -66.66,-107.72 0,-4.48 0.23,-8.98 0.69,-13.46 2.69,-34.56 16.49,-62.72 41.39,-84.5 24.91,-21.75 58.24,-32.64 99.99,-32.64 25.57,0 56.55,2.24 92.9,6.74 h 41.73 l -8.74,98.96 h -6.07 c -0.44,-23.34 -9.42,-42.08 -26.92,-56.21 -17.51,-14.14 -40.63,-21.22 -69.35,-21.22 -35,0 -60.37,10.54 -76.06,31.65 -7.64,10.76 -11.45,22.44 -11.45,35 0,12.56 3.81,23.24 11.45,31.98 7.61,8.75 19.73,18.29 36.35,28.61 l 125.89,82.14 c 25.57,16.6 45.54,36.13 59.9,58.57 17.07,26.48 25.59,53.62 25.59,81.45 0,17.96 -3.71,36.92 -11.1,56.89 -7.41,19.97 -19.53,38.49 -36.35,55.55 -16.85,17.04 -38.49,30.96 -64.97,41.73 -26.49,10.78 -55.77,16.15 -87.86,16.15 -32.09,0 -61.15,-5.6 -87.18,-16.82 -48.03,-20.2 -78.55,-55.42 -91.56,-105.69 -2.7,-10.79 -4.03,-21.99 -4.03,-33.67 0,-37.71 13.23,-73.37 39.71,-107.04 z m 389.12,184.47 c 11.67,0 21.66,-4.15 29.96,-12.45 8.3,-8.32 12.68,-18.31 13.13,-29.96 v -373.64 c -0.45,-16.16 -7.85,-28.28 -22.21,-36.36 -6.28,-3.59 -13.25,-5.39 -20.88,-5.39 h -8.75 v -6.73 h 204.66 l -0.67,6.73 h -8.08 c -11.67,0 -21.77,4.04 -30.3,12.12 -8.52,8.08 -12.78,17.95 -12.78,29.63 v 373.64 c 0,11.65 4.26,21.64 12.78,29.96 8.53,8.3 18.63,12.45 30.3,12.45 h 8.08 l 0.67,6.73 h -204.66 v -6.73 z m 668.51,121.18 c -32.76,17.05 -62.61,25.57 -89.53,25.57 -26.94,0 -51.18,-3.82 -72.71,-11.43 -53.42,-19.31 -107.95,-63.52 -163.6,-132.63 l -177.06,-218.12 159.56,-211.39 c 3.59,-4.5 5.39,-8.54 5.39,-12.11 0,-3.6 -0.69,-6.75 -2.02,-9.44 -3.6,-6.72 -9.88,-10.09 -18.86,-10.09 h -6.73 v -6.07 h 154.17 v 6.07 h -2.69 c -30.07,0 -54.53,10.76 -73.38,32.31 l -131.28,156.18 183.11,227.56 c 40.85,53.85 79.23,92.9 115.12,117.14 35.91,24.24 75.86,37.47 119.84,39.71 z m 3.37,-415.39 c -8.08,-17.04 -12.12,-33.31 -12.12,-48.8 0,-15.49 2.03,-29.85 6.07,-43.08 4.04,-13.25 10.76,-26.26 20.19,-39.06 9.42,-12.79 22.66,-23.44 39.71,-31.96 23.35,-12.12 51.4,-18.18 84.16,-18.18 43.08,0 83.92,10.99 122.51,32.98 50.73,28.72 85.96,68.45 105.71,119.16 11.21,27.83 16.83,57.67 16.83,89.53 0,74.96 -27.03,135.33 -81.12,181.11 -54.09,45.77 -124.56,68.67 -211.4,68.67 -86.85,0 -157.53,-22.9 -212.07,-68.67 -54.53,-45.78 -81.78,-105.93 -81.78,-180.44 0,-55.64 15.82,-104 47.45,-145.06 31.65,-41.08 74.4,-69 128.26,-83.82 l 4.04,6.05 c -22.89,19.31 -40.18,47.58 -51.85,84.83 -11.67,37.26 -17.49,77.41 -17.49,120.51 0,72.71 16.82,130.59 50.49,173.69 33.65,43.09 77.75,64.63 132.28,64.63 54.53,0 98.52,-20.3 131.95,-60.92 33.44,-40.64 50.15,-94.37 50.15,-161.24 0,-40.4 -6.17,-76.86 -18.51,-109.4 -12.34,-32.53 -30.18,-57.68 -53.53,-75.41 -23.32,-17.71 -49.36,-26.59 -78.08,-26.59 -31.87,0 -57.68,8.3 -77.41,24.92 -27.83,23.78 -41.75,54.07 -41.75,90.87 0,11.67 1.57,23.57 4.71,35.68 z m 1015.22,-306.99 c 5.83,0 11.9,0.23 18.17,0.69 v 6.73 c -52.95,4.03 -91.1,29.16 -114.45,75.39 -15.25,30.07 -22.88,68.23 -22.88,114.45 v 240.35 c -0.89,56.55 -19.07,100.64 -54.53,132.28 -35.45,31.65 -86.06,47.47 -151.82,47.47 -65.74,0 -118.14,-16.27 -157.19,-48.81 -39.05,-32.55 -58.36,-75.97 -57.89,-130.27 v -261.88 c 0,-9.43 -3.49,-17.28 -10.45,-23.57 -6.95,-6.28 -15.36,-9.43 -25.24,-9.43 h -10.77 v -6.73 h 193.89 v 6.73 h -10.78 c -13.91,0 -24.24,5.39 -30.96,16.16 -3.15,4.94 -4.71,10.32 -4.71,16.16 v 257.16 c 0,47.58 12.34,85.29 37.02,113.1 24.69,27.83 57.22,41.75 97.62,41.75 0.44,0 0.68,0 0.68,0 0,0 0.22,0 0.67,0 39.95,0 72.71,-13.01 98.28,-39.04 25.59,-26.03 38.37,-61.72 38.37,-107.04 v -244.39 c 0,-60.59 16.05,-108.61 48.14,-144.06 32.1,-35.46 71.71,-53.2 118.83,-53.2 z m 894.37,678.28 c 7.41,4.27 15.82,8.3 25.25,12.12 9.42,3.82 18.51,6.5 27.26,8.08 8.75,1.57 18.4,2.35 28.94,2.35 10.56,0 21.44,-1.35 32.67,-4.04 l 2.68,6.73 c -25.13,12.12 -50.49,18.18 -76.08,18.18 -58.79,0 -118.7,-32.54 -179.74,-97.61 l -319.1,-338.64 v 275.36 c 0,11.21 4.04,20.75 12.12,28.61 8.08,7.85 17.71,11.78 28.94,11.78 h 12.79 v 6.73 h -203.99 v -6.73 h 12.11 c 11.68,0 21.56,-3.93 29.63,-11.78 8.08,-7.86 12.12,-17.62 12.12,-29.3 v -377.66 c -21.99,-25.14 -38.6,-42.76 -49.82,-52.86 -11.21,-10.1 -21.2,-18.51 -29.95,-25.24 -8.76,-6.72 -17.17,-12.34 -25.25,-16.83 -18.85,-10.78 -34,-17.06 -45.44,-18.86 -11.45,-1.79 -22.21,-2.68 -32.31,-2.68 -10.1,0 -20.99,2.02 -32.67,6.06 l -2.68,-6.73 c 24.68,-14.37 50.04,-21.55 76.08,-21.55 56.55,0 116.45,33.67 179.75,100.98 l 300.91,319.78 v -280.05 c -0.45,-11.67 -4.71,-21.44 -12.79,-29.3 -8.07,-7.85 -17.72,-11.78 -28.94,-11.78 h -12.12 v -6.73 h 203.99 v 6.73 h -12.8 c -11.21,0 -20.86,3.93 -28.94,11.78 -8.08,7.86 -12.34,17.4 -12.78,28.62 v 383.07 l 10.76,10.76 c 2.69,2.69 6.84,7.3 12.45,13.81 5.61,6.5 10.67,12.11 15.16,16.82 4.48,4.71 10.21,10.65 17.16,17.84 6.96,7.19 13.46,13.48 19.53,18.85 6.05,5.39 13.23,11.23 21.54,17.51 8.3,6.28 16.16,11.56 23.56,15.82 z m 225.2,-77.08 h 8.74 v 6.73 h -204.65 v -6.73 h 8.75 c 11.67,0 21.66,-4.15 29.96,-12.45 8.3,-8.32 12.67,-18.31 13.12,-29.96 v -394.51 l -63.95,2.69 c -42.19,1.8 -63.29,17.51 -63.29,47.12 0,12.12 4.15,22.33 12.45,30.63 8.32,8.3 19.86,12.47 34.69,12.47 1.33,0 2.68,0 4.04,0 v 4.04 c -8.99,3.13 -16.63,4.7 -22.91,4.7 -20.19,0 -35.67,-7.19 -46.45,-21.54 -7.62,-9.88 -11.43,-21.09 -11.43,-33.65 0,-19.75 7.74,-36.03 23.22,-48.82 15.49,-12.79 39.38,-20.32 71.7,-22.55 5.84,-0.45 24.68,-1.34 56.55,-2.7 72.71,-2.68 125.44,-7.18 158.2,-13.46 l 1.36,6.74 c -19.31,3.13 -32.89,9.64 -40.75,19.51 -7.85,9.88 -12.01,24.46 -12.45,43.77 v 365.56 c 0.44,11.65 4.83,21.64 13.14,29.96 8.3,8.3 18.28,12.45 29.96,12.45 z m 66.63,0 c 11.67,0 21.66,-4.15 29.96,-12.45 8.3,-8.32 12.68,-18.31 13.14,-29.96 v -373.64 c -0.46,-16.16 -7.86,-28.28 -22.22,-36.36 -6.28,-3.59 -13.25,-5.39 -20.88,-5.39 h -8.75 v -6.73 h 204.66 l -0.67,6.73 h -8.08 c -11.67,0 -21.77,4.04 -30.29,12.12 -8.53,8.08 -12.79,17.95 -12.79,29.63 v 373.64 c 0,11.65 4.26,21.64 12.79,29.96 8.52,8.3 18.62,12.45 30.29,12.45 h 8.08 l 0.67,6.73 h -204.66 v -6.73 z m 668.51,121.18 c -32.76,17.05 -62.6,25.57 -89.53,25.57 -26.94,0 -51.18,-3.82 -72.71,-11.43 -53.42,-19.31 -107.95,-63.52 -163.59,-132.63 l -177.07,-218.12 159.56,-211.39 c 3.59,-4.5 5.39,-8.54 5.39,-12.11 0,-3.6 -0.68,-6.75 -2.02,-9.44 -3.59,-6.72 -9.88,-10.09 -18.86,-10.09 h -6.73 v -6.07 h 154.16 v 6.07 h -2.68 c -30.08,0 -54.54,10.76 -73.38,32.31 l -131.28,156.18 183.11,227.56 c 40.85,53.85 79.23,92.9 115.12,117.14 35.91,24.24 75.86,37.47 119.85,39.71 z m 78.77,-121.18 h 8.75 v 6.73 h -204.66 v -6.73 h 8.75 c 11.67,0 21.66,-4.15 29.96,-12.45 8.3,-8.32 12.68,-18.31 13.12,-29.96 v -394.51 l -63.95,2.69 c -42.19,1.8 -63.29,17.51 -63.29,47.12 0,12.12 4.15,22.33 12.45,30.63 8.32,8.3 19.87,12.47 34.69,12.47 1.33,0 2.68,0 4.04,0 v 4.04 c -8.99,3.13 -16.62,4.7 -22.9,4.7 -20.2,0 -35.68,-7.19 -46.46,-21.54 -7.61,-9.88 -11.43,-21.09 -11.43,-33.65 0,-19.75 7.74,-36.03 23.22,-48.82 15.49,-12.79 39.39,-20.32 71.71,-22.55 5.83,-0.45 24.68,-1.34 56.55,-2.7 72.71,-2.68 125.44,-7.18 158.2,-13.46 l 1.35,6.74 c -19.31,3.13 -32.89,9.64 -40.74,19.51 -7.86,9.88 -12.01,24.46 -12.45,43.77 v 365.56 c 0.44,11.65 4.83,21.64 13.13,29.96 8.3,8.3 18.29,12.45 29.96,12.45 z m -1963.11,75.4 c 20.64,-7.64 30.97,-21.33 30.97,-41.06 0,-11.23 -4.93,-22.57 -14.81,-34 -9.88,-11.45 -14.81,-24.13 -14.81,-38.04 0,-13.92 4.15,-25.02 12.45,-33.32 8.31,-8.32 18.07,-12.47 29.28,-12.47 23.79,0 40.17,10.56 49.16,31.65 6.28,12.56 9.41,23.11 9.41,31.64 0,24.68 -5.15,44.88 -15.47,60.59 -18.86,28.72 -43.1,43.09 -72.71,43.09 -3.59,0 -7.19,-0.23 -10.78,-0.67 z"
       id="path7"
       inkscape:connector-curvature="0"
       style="fill:#26292e;fill-rule:nonzero;stroke-width:0.00636117" /></g></svg>